<mxfile host="app.diagrams.net" agent="Mozilla/5.0 (Macintosh; Intel Mac OS X 10_15_7) AppleWebKit/605.1.15 (KHTML, like Gecko) Version/18.5 Safari/605.1.15" version="27.0.6">
  <diagram name="Page-1" id="H15xUyuj82uc5km4XfCG">
    <mxGraphModel dx="1238" dy="811" grid="1" gridSize="10" guides="1" tooltips="1" connect="1" arrows="1" fold="1" page="1" pageScale="1" pageWidth="896" pageHeight="768" math="0" shadow="0">
      <root>
        <mxCell id="0" />
        <mxCell id="1" parent="0" />
        <mxCell id="fqkR_vfwaO75XF3U8mRH-2" value="" style="rounded=0;whiteSpace=wrap;html=1;" vertex="1" parent="1">
          <mxGeometry x="23" y="78" width="390" height="240" as="geometry" />
        </mxCell>
        <mxCell id="fqkR_vfwaO75XF3U8mRH-4" value="Thunderbird.xcworkspace" style="text;strokeColor=none;fillColor=none;html=1;fontSize=16;fontStyle=0;verticalAlign=middle;align=left;fontFamily=ui-monospace;fontColor=#666666;" vertex="1" parent="1">
          <mxGeometry x="23" y="20" width="250" height="40" as="geometry" />
        </mxCell>
        <mxCell id="fqkR_vfwaO75XF3U8mRH-6" value="Thunderbird.xcodeproj" style="text;html=1;align=left;verticalAlign=middle;whiteSpace=wrap;rounded=0;fontFamily=ui-monospace;fontSize=12;" vertex="1" parent="1">
          <mxGeometry x="38" y="78" width="360" height="30" as="geometry" />
        </mxCell>
        <mxCell id="fqkR_vfwaO75XF3U8mRH-12" value="&lt;font&gt;&lt;font style=&quot;font-size: 15px;&quot;&gt;📱&amp;nbsp;&lt;/font&gt;App&lt;/font&gt;" style="swimlane;fontStyle=0;childLayout=stackLayout;horizontal=1;startSize=30;horizontalStack=0;resizeParent=1;resizeParentMax=0;resizeLast=0;collapsible=1;marginBottom=0;whiteSpace=wrap;html=1;" vertex="1" parent="1">
          <mxGeometry x="38" y="118" width="360" height="120" as="geometry" />
        </mxCell>
        <mxCell id="fqkR_vfwaO75XF3U8mRH-13" value="&amp;nbsp;📂 Buildable folders organized by user interface" style="text;strokeColor=none;fillColor=none;align=left;verticalAlign=middle;spacingLeft=4;spacingRight=4;overflow=hidden;points=[[0,0.5],[1,0.5]];portConstraint=eastwest;rotatable=0;whiteSpace=wrap;html=1;" vertex="1" parent="fqkR_vfwaO75XF3U8mRH-12">
          <mxGeometry y="30" width="360" height="30" as="geometry" />
        </mxCell>
        <mxCell id="fqkR_vfwaO75XF3U8mRH-14" value="&amp;nbsp;📑 Documentation catalog" style="text;strokeColor=none;fillColor=none;align=left;verticalAlign=middle;spacingLeft=4;spacingRight=4;overflow=hidden;points=[[0,0.5],[1,0.5]];portConstraint=eastwest;rotatable=0;whiteSpace=wrap;html=1;" vertex="1" parent="fqkR_vfwaO75XF3U8mRH-12">
          <mxGeometry y="60" width="360" height="30" as="geometry" />
        </mxCell>
        <mxCell id="fqkR_vfwaO75XF3U8mRH-15" value="&amp;nbsp;🌐 Localization" style="text;strokeColor=none;fillColor=none;align=left;verticalAlign=middle;spacingLeft=4;spacingRight=4;overflow=hidden;points=[[0,0.5],[1,0.5]];portConstraint=eastwest;rotatable=0;whiteSpace=wrap;html=1;" vertex="1" parent="fqkR_vfwaO75XF3U8mRH-12">
          <mxGeometry y="90" width="360" height="30" as="geometry" />
        </mxCell>
        <mxCell id="fqkR_vfwaO75XF3U8mRH-16" value="Dependencies" style="text;html=1;align=left;verticalAlign=middle;whiteSpace=wrap;rounded=0;" vertex="1" parent="1">
          <mxGeometry x="38" y="243" width="360" height="30" as="geometry" />
        </mxCell>
        <mxCell id="fqkR_vfwaO75XF3U8mRH-18" value="&lt;font face=&quot;ui-monospace&quot;&gt;🍎 SwiftUI&lt;/font&gt;" style="text;html=1;align=center;verticalAlign=middle;whiteSpace=wrap;rounded=0;strokeColor=default;" vertex="1" parent="1">
          <mxGeometry x="38" y="273" width="110" height="30" as="geometry" />
        </mxCell>
        <mxCell id="fqkR_vfwaO75XF3U8mRH-22" value="&lt;font face=&quot;ui-monospace&quot;&gt;🏛️ Mail&lt;/font&gt;" style="text;html=1;align=center;verticalAlign=middle;whiteSpace=wrap;rounded=0;strokeColor=default;" vertex="1" parent="1">
          <mxGeometry x="288" y="273" width="110" height="30" as="geometry" />
        </mxCell>
        <mxCell id="fqkR_vfwaO75XF3U8mRH-24" value="&lt;font face=&quot;ui-monospace&quot;&gt;🏛️ Bolt&lt;/font&gt;" style="text;html=1;align=center;verticalAlign=middle;whiteSpace=wrap;rounded=0;strokeColor=default;" vertex="1" parent="1">
          <mxGeometry x="163" y="273" width="110" height="30" as="geometry" />
        </mxCell>
        <mxCell id="fqkR_vfwaO75XF3U8mRH-25" value="" style="rounded=0;whiteSpace=wrap;html=1;fillStyle=auto;" vertex="1" parent="1">
          <mxGeometry x="23" y="384" width="390" height="330" as="geometry" />
        </mxCell>
        <mxCell id="fqkR_vfwaO75XF3U8mRH-26" value="📦 Bolt" style="text;html=1;align=left;verticalAlign=middle;whiteSpace=wrap;rounded=0;fontFamily=ui-monospace;fontSize=12;" vertex="1" parent="1">
          <mxGeometry x="38" y="384" width="360" height="30" as="geometry" />
        </mxCell>
        <mxCell id="fqkR_vfwaO75XF3U8mRH-27" value="&lt;span style=&quot;font-family: ui-monospace;&quot;&gt;🏛️ Bolt&lt;/span&gt;" style="swimlane;fontStyle=0;childLayout=stackLayout;horizontal=1;startSize=30;horizontalStack=0;resizeParent=1;resizeParentMax=0;resizeLast=0;collapsible=1;marginBottom=0;whiteSpace=wrap;html=1;" vertex="1" parent="1">
          <mxGeometry x="38" y="424" width="360" height="90" as="geometry" />
        </mxCell>
        <mxCell id="fqkR_vfwaO75XF3U8mRH-28" value="&amp;nbsp;🎨 Design system colors, fonts and elements" style="text;strokeColor=none;fillColor=none;align=left;verticalAlign=middle;spacingLeft=4;spacingRight=4;overflow=hidden;points=[[0,0.5],[1,0.5]];portConstraint=eastwest;rotatable=0;whiteSpace=wrap;html=1;" vertex="1" parent="fqkR_vfwaO75XF3U8mRH-27">
          <mxGeometry y="30" width="360" height="30" as="geometry" />
        </mxCell>
        <mxCell id="fqkR_vfwaO75XF3U8mRH-29" value="&amp;nbsp;🧱 Reusable SwiftUI components" style="text;strokeColor=none;fillColor=none;align=left;verticalAlign=middle;spacingLeft=4;spacingRight=4;overflow=hidden;points=[[0,0.5],[1,0.5]];portConstraint=eastwest;rotatable=0;whiteSpace=wrap;html=1;" vertex="1" parent="fqkR_vfwaO75XF3U8mRH-27">
          <mxGeometry y="60" width="360" height="30" as="geometry" />
        </mxCell>
        <mxCell id="fqkR_vfwaO75XF3U8mRH-31" value="Dependencies" style="text;html=1;align=left;verticalAlign=middle;whiteSpace=wrap;rounded=0;" vertex="1" parent="1">
          <mxGeometry x="38" y="634" width="360" height="30" as="geometry" />
        </mxCell>
        <mxCell id="fqkR_vfwaO75XF3U8mRH-32" value="&lt;font face=&quot;ui-monospace&quot;&gt;🍎 SwiftUI&lt;/font&gt;" style="text;html=1;align=center;verticalAlign=middle;whiteSpace=wrap;rounded=0;strokeColor=default;" vertex="1" parent="1">
          <mxGeometry x="38" y="664" width="110" height="30" as="geometry" />
        </mxCell>
        <mxCell id="fqkR_vfwaO75XF3U8mRH-35" value="&lt;font face=&quot;ui-monospace&quot;&gt;🍎 WebKit&lt;/font&gt;" style="text;html=1;align=center;verticalAlign=middle;whiteSpace=wrap;rounded=0;strokeColor=default;" vertex="1" parent="1">
          <mxGeometry x="163" y="664" width="110" height="30" as="geometry" />
        </mxCell>
        <mxCell id="fqkR_vfwaO75XF3U8mRH-36" value="&lt;span style=&quot;font-family: ui-monospace;&quot;&gt;🏛️ Editor&lt;/span&gt;" style="swimlane;fontStyle=0;childLayout=stackLayout;horizontal=1;startSize=30;horizontalStack=0;resizeParent=1;resizeParentMax=0;resizeLast=0;collapsible=1;marginBottom=0;whiteSpace=wrap;html=1;" vertex="1" parent="1">
          <mxGeometry x="38" y="534" width="360" height="90" as="geometry" />
        </mxCell>
        <mxCell id="fqkR_vfwaO75XF3U8mRH-37" value="&amp;nbsp;🧰 Content-editable HTML read/compose editor" style="text;strokeColor=none;fillColor=none;align=left;verticalAlign=middle;spacingLeft=4;spacingRight=4;overflow=hidden;points=[[0,0.5],[1,0.5]];portConstraint=eastwest;rotatable=0;whiteSpace=wrap;html=1;" vertex="1" parent="fqkR_vfwaO75XF3U8mRH-36">
          <mxGeometry y="30" width="360" height="30" as="geometry" />
        </mxCell>
        <mxCell id="fqkR_vfwaO75XF3U8mRH-38" value="&amp;nbsp;🧰 WebKit- and Gecko-compatible JS messaging bridge" style="text;strokeColor=none;fillColor=none;align=left;verticalAlign=middle;spacingLeft=4;spacingRight=4;overflow=hidden;points=[[0,0.5],[1,0.5]];portConstraint=eastwest;rotatable=0;whiteSpace=wrap;html=1;" vertex="1" parent="fqkR_vfwaO75XF3U8mRH-36">
          <mxGeometry y="60" width="360" height="30" as="geometry" />
        </mxCell>
        <mxCell id="fqkR_vfwaO75XF3U8mRH-40" value="" style="rounded=0;whiteSpace=wrap;html=1;fillStyle=auto;" vertex="1" parent="1">
          <mxGeometry x="483" y="38" width="390" height="692" as="geometry" />
        </mxCell>
        <mxCell id="fqkR_vfwaO75XF3U8mRH-41" value="📦 Mail" style="text;html=1;align=left;verticalAlign=middle;whiteSpace=wrap;rounded=0;fontFamily=ui-monospace;fontSize=12;" vertex="1" parent="1">
          <mxGeometry x="498" y="38" width="360" height="30" as="geometry" />
        </mxCell>
        <mxCell id="fqkR_vfwaO75XF3U8mRH-42" value="&lt;span style=&quot;font-family: ui-monospace;&quot;&gt;🏛️ Mail&lt;/span&gt;" style="swimlane;fontStyle=0;childLayout=stackLayout;horizontal=1;startSize=30;horizontalStack=0;resizeParent=1;resizeParentMax=0;resizeLast=0;collapsible=1;marginBottom=0;whiteSpace=wrap;html=1;" vertex="1" parent="1">
          <mxGeometry x="498" y="78" width="360" height="120" as="geometry" />
        </mxCell>
        <mxCell id="fqkR_vfwaO75XF3U8mRH-43" value="&amp;nbsp;🧰 &lt;font face=&quot;ui-monospace&quot;&gt;@Observable&lt;/font&gt; interface for SwiftUI apps" style="text;strokeColor=none;fillColor=none;align=left;verticalAlign=middle;spacingLeft=4;spacingRight=4;overflow=hidden;points=[[0,0.5],[1,0.5]];portConstraint=eastwest;rotatable=0;whiteSpace=wrap;html=1;" vertex="1" parent="fqkR_vfwaO75XF3U8mRH-42">
          <mxGeometry y="30" width="360" height="30" as="geometry" />
        </mxCell>
        <mxCell id="fqkR_vfwaO75XF3U8mRH-44" value="&amp;nbsp;Exported:" style="text;strokeColor=none;fillColor=none;align=left;verticalAlign=middle;spacingLeft=4;spacingRight=4;overflow=hidden;points=[[0,0.5],[1,0.5]];portConstraint=eastwest;rotatable=0;whiteSpace=wrap;html=1;" vertex="1" parent="fqkR_vfwaO75XF3U8mRH-42">
          <mxGeometry y="60" width="360" height="30" as="geometry" />
        </mxCell>
        <mxCell id="fqkR_vfwaO75XF3U8mRH-53" value="&lt;span style=&quot;font-family: ui-monospace; text-align: center;&quot;&gt;&amp;nbsp;🏛️ Account;&amp;nbsp;&lt;/span&gt;&lt;span style=&quot;font-family: ui-monospace; text-align: center;&quot;&gt;🏛️ JMAP;&amp;nbsp;&lt;/span&gt;&lt;span style=&quot;font-family: ui-monospace; text-align: center;&quot;&gt;🏛️ IMAP;&amp;nbsp;&lt;/span&gt;&lt;span style=&quot;font-family: ui-monospace; text-align: center;&quot;&gt;🏛️ SMTP&lt;/span&gt;" style="text;strokeColor=none;fillColor=none;align=left;verticalAlign=middle;spacingLeft=4;spacingRight=4;overflow=hidden;points=[[0,0.5],[1,0.5]];portConstraint=eastwest;rotatable=0;whiteSpace=wrap;html=1;" vertex="1" parent="fqkR_vfwaO75XF3U8mRH-42">
          <mxGeometry y="90" width="360" height="30" as="geometry" />
        </mxCell>
        <mxCell id="fqkR_vfwaO75XF3U8mRH-45" value="Dependencies" style="text;html=1;align=left;verticalAlign=middle;whiteSpace=wrap;rounded=0;" vertex="1" parent="1">
          <mxGeometry x="498" y="650" width="360" height="30" as="geometry" />
        </mxCell>
        <mxCell id="fqkR_vfwaO75XF3U8mRH-46" value="&lt;font face=&quot;ui-monospace&quot;&gt;🍎 Foundation&lt;/font&gt;" style="text;html=1;align=center;verticalAlign=middle;whiteSpace=wrap;rounded=0;strokeColor=default;" vertex="1" parent="1">
          <mxGeometry x="498" y="680" width="110" height="30" as="geometry" />
        </mxCell>
        <mxCell id="fqkR_vfwaO75XF3U8mRH-55" value="&lt;span style=&quot;font-family: ui-monospace;&quot;&gt;🏛️ Account&lt;/span&gt;" style="swimlane;fontStyle=0;childLayout=stackLayout;horizontal=1;startSize=30;horizontalStack=0;resizeParent=1;resizeParentMax=0;resizeLast=0;collapsible=1;marginBottom=0;whiteSpace=wrap;html=1;" vertex="1" parent="1">
          <mxGeometry x="498" y="218" width="360" height="180" as="geometry" />
        </mxCell>
        <mxCell id="fqkR_vfwaO75XF3U8mRH-65" value="&amp;nbsp;🧰 Manage user profiles, mail servers, identities and messages" style="text;strokeColor=none;fillColor=none;align=left;verticalAlign=middle;spacingLeft=4;spacingRight=4;overflow=hidden;points=[[0,0.5],[1,0.5]];portConstraint=eastwest;rotatable=0;whiteSpace=wrap;html=1;" vertex="1" parent="fqkR_vfwaO75XF3U8mRH-55">
          <mxGeometry y="30" width="360" height="30" as="geometry" />
        </mxCell>
        <mxCell id="fqkR_vfwaO75XF3U8mRH-67" value="&amp;nbsp;🧰 Folder and message search index" style="text;strokeColor=none;fillColor=none;align=left;verticalAlign=middle;spacingLeft=4;spacingRight=4;overflow=hidden;points=[[0,0.5],[1,0.5]];portConstraint=eastwest;rotatable=0;whiteSpace=wrap;html=1;" vertex="1" parent="fqkR_vfwaO75XF3U8mRH-55">
          <mxGeometry y="60" width="360" height="30" as="geometry" />
        </mxCell>
        <mxCell id="fqkR_vfwaO75XF3U8mRH-66" value="&amp;nbsp;🧰 Offline draft, sync" style="text;strokeColor=none;fillColor=none;align=left;verticalAlign=middle;spacingLeft=4;spacingRight=4;overflow=hidden;points=[[0,0.5],[1,0.5]];portConstraint=eastwest;rotatable=0;whiteSpace=wrap;html=1;" vertex="1" parent="fqkR_vfwaO75XF3U8mRH-55">
          <mxGeometry y="90" width="360" height="30" as="geometry" />
        </mxCell>
        <mxCell id="fqkR_vfwaO75XF3U8mRH-56" value="&amp;nbsp;🧰 Database persistence for mail and account configuration" style="text;strokeColor=none;fillColor=none;align=left;verticalAlign=middle;spacingLeft=4;spacingRight=4;overflow=hidden;points=[[0,0.5],[1,0.5]];portConstraint=eastwest;rotatable=0;whiteSpace=wrap;html=1;" vertex="1" parent="fqkR_vfwaO75XF3U8mRH-55">
          <mxGeometry y="120" width="360" height="30" as="geometry" />
        </mxCell>
        <mxCell id="fqkR_vfwaO75XF3U8mRH-57" value="&amp;nbsp;🧰 Secure secret storage" style="text;strokeColor=none;fillColor=none;align=left;verticalAlign=middle;spacingLeft=4;spacingRight=4;overflow=hidden;points=[[0,0.5],[1,0.5]];portConstraint=eastwest;rotatable=0;whiteSpace=wrap;html=1;" vertex="1" parent="fqkR_vfwaO75XF3U8mRH-55">
          <mxGeometry y="150" width="360" height="30" as="geometry" />
        </mxCell>
        <mxCell id="fqkR_vfwaO75XF3U8mRH-58" value="&lt;span style=&quot;font-family: ui-monospace;&quot;&gt;🏛️ JMAP&lt;/span&gt;" style="swimlane;fontStyle=0;childLayout=stackLayout;horizontal=1;startSize=30;horizontalStack=0;resizeParent=1;resizeParentMax=0;resizeLast=0;collapsible=1;marginBottom=0;whiteSpace=wrap;html=1;" vertex="1" parent="1">
          <mxGeometry x="498" y="418" width="360" height="60" as="geometry" />
        </mxCell>
        <mxCell id="fqkR_vfwaO75XF3U8mRH-59" value="&amp;nbsp;🧰 Read and manage folders and messages" style="text;strokeColor=none;fillColor=none;align=left;verticalAlign=middle;spacingLeft=4;spacingRight=4;overflow=hidden;points=[[0,0.5],[1,0.5]];portConstraint=eastwest;rotatable=0;whiteSpace=wrap;html=1;" vertex="1" parent="fqkR_vfwaO75XF3U8mRH-58">
          <mxGeometry y="30" width="360" height="30" as="geometry" />
        </mxCell>
        <mxCell id="fqkR_vfwaO75XF3U8mRH-61" value="&lt;span style=&quot;font-family: ui-monospace;&quot;&gt;🏛️ IMAP&lt;/span&gt;" style="swimlane;fontStyle=0;childLayout=stackLayout;horizontal=1;startSize=30;horizontalStack=0;resizeParent=1;resizeParentMax=0;resizeLast=0;collapsible=1;marginBottom=0;whiteSpace=wrap;html=1;" vertex="1" parent="1">
          <mxGeometry x="498" y="498" width="360" height="60" as="geometry" />
        </mxCell>
        <mxCell id="fqkR_vfwaO75XF3U8mRH-62" value="&amp;nbsp;🧰 Read and manage folders and messages" style="text;strokeColor=none;fillColor=none;align=left;verticalAlign=middle;spacingLeft=4;spacingRight=4;overflow=hidden;points=[[0,0.5],[1,0.5]];portConstraint=eastwest;rotatable=0;whiteSpace=wrap;html=1;" vertex="1" parent="fqkR_vfwaO75XF3U8mRH-61">
          <mxGeometry y="30" width="360" height="30" as="geometry" />
        </mxCell>
        <mxCell id="fqkR_vfwaO75XF3U8mRH-63" value="&lt;span style=&quot;font-family: ui-monospace;&quot;&gt;🏛️ SMTP&lt;/span&gt;" style="swimlane;fontStyle=0;childLayout=stackLayout;horizontal=1;startSize=30;horizontalStack=0;resizeParent=1;resizeParentMax=0;resizeLast=0;collapsible=1;marginBottom=0;whiteSpace=wrap;html=1;" vertex="1" parent="1">
          <mxGeometry x="498" y="578" width="360" height="60" as="geometry" />
        </mxCell>
        <mxCell id="fqkR_vfwaO75XF3U8mRH-64" value="&amp;nbsp;🧰 Message sending" style="text;strokeColor=none;fillColor=none;align=left;verticalAlign=middle;spacingLeft=4;spacingRight=4;overflow=hidden;points=[[0,0.5],[1,0.5]];portConstraint=eastwest;rotatable=0;whiteSpace=wrap;html=1;" vertex="1" parent="fqkR_vfwaO75XF3U8mRH-63">
          <mxGeometry y="30" width="360" height="30" as="geometry" />
        </mxCell>
        <mxCell id="fqkR_vfwaO75XF3U8mRH-71" value="" style="line;strokeWidth=2;html=1;fillColor=none;strokeColor=#66B2FF;fillStyle=dots;" vertex="1" parent="1">
          <mxGeometry x="398" y="283" width="52" height="10" as="geometry" />
        </mxCell>
        <mxCell id="fqkR_vfwaO75XF3U8mRH-72" value="" style="line;strokeWidth=2;direction=south;html=1;fillColor=none;strokeColor=#66B2FF;fillStyle=dots;" vertex="1" parent="1">
          <mxGeometry x="444" y="137" width="10" height="150" as="geometry" />
        </mxCell>
        <mxCell id="fqkR_vfwaO75XF3U8mRH-74" value="" style="line;strokeWidth=2;html=1;fillColor=none;strokeColor=#66B2FF;fillStyle=dots;" vertex="1" parent="1">
          <mxGeometry x="448" y="133" width="50" height="10" as="geometry" />
        </mxCell>
        <mxCell id="fqkR_vfwaO75XF3U8mRH-75" value="" style="line;strokeWidth=2;direction=south;html=1;fillColor=none;strokeColor=#66B2FF;fillStyle=dots;" vertex="1" parent="1">
          <mxGeometry x="213" y="303" width="10" height="121" as="geometry" />
        </mxCell>
      </root>
    </mxGraphModel>
  </diagram>
</mxfile>
